<svg xmlns="http://www.w3.org/2000/svg" data-name="Слой 1" viewBox="0 0 100 125" x="0px" y="0px"><title>куртка</title><g><path d="M36.87512,28.60992c-1.43324-1.54137-2.93943-3.11344-4.38763-4.73722a2.29156,2.29156,0,0,1-.20394-3.01895c3.06483-4.74255,6.68789-8.95223,12.25247-10.6996A19.39225,19.39225,0,0,1,53.37694,9.299c3.36249,0.53649,6.73458,1.06255,10.0527,1.81322a14.79368,14.79368,0,0,1,8.132,4.92426c0.93189,1.09337.988,2.4329,1.14629,3.82383a12.03021,12.03021,0,0,1-.478,4.84288A8.37943,8.37943,0,0,1,68.924,29.02894c-0.18853.14118-.37935,0.28033-0.557,0.4344a0.344,0.344,0,0,0-.06092.16841,10.27724,10.27724,0,0,1,2.0981.79146c2.04271,1.32475,2.90534,3.63575,4.35847,5.45841,2.20776,2.76911,3.26192,6.137,4.44962,9.39365q2.62737,7.20428,4.901,14.53631c1.52138,4.8848,2.85351,9.82878,4.25189,14.75158a31.03081,31.03081,0,0,1,1.15432,9.29542A4.06231,4.06231,0,0,1,86.6207,87.7983a14.70352,14.70352,0,0,1-7.36725.95586c-1.91775-.23858-2.44979-1.75326-3.22267-3.09212-0.20623-.35726-0.38624-0.72966-0.56747-1.07453a0.714,0.714,0,0,0-.22142.07119c-1.52735,3.85124-5.01049,4.63907-8.49415,5.34569-1.79069.36322-3.62,0.55646-5.44034,0.74452-0.88793.09173-1.79533-.01768-2.6938-0.01322-5.16676.02562-10.33456,0.13137-15.49973,0.05524-2.34714-.03459-4.692-0.39838-7.03253-0.66056-2.64213-.296-5.27962-0.635-7.91653-0.97539-1.95325-.25212-4.36509-2.86928-4.51331-4.75776-0.13085-1.66712-.48886-3.31642-0.68061-4.54948a54.7335,54.7335,0,0,0-2.21335,7.46982c-0.19076,1.14415-.72665,1.20767-1.33976,1.70675a2.32689,2.32689,0,0,1-2.58411.413c-1.67651-.61576-3.416-1.05851-5.10286-1.64871A2.06876,2.06876,0,0,1,10.653,86.8964,12.50629,12.50629,0,0,1,9.62,78.76694c0.17671-.99848.19134-2.02516,0.29026-3.038A65.34232,65.34232,0,0,1,13.157,61.07052c0.33769-.99619.4538-2.06535,0.71629-3.08955A96.1275,96.1275,0,0,1,20.111,40.11811a54.63638,54.63638,0,0,1,4.81033-7.37028,6.73385,6.73385,0,0,1,4.23111-2.36256C31.76937,29.74619,34.40286,29.1747,36.87512,28.60992Zm13.16466,4.23625c-0.05419,5.31878-.15789,10.6474-0.14494,15.97575,0.00827,3.4071.21676,6.81326,0.28016,10.22087,0.03059,1.64379-.03756,3.29144-0.12113,4.93428-0.03036.59629-.5057,1.29686,0.58056,1.3918,1.30762,0.1143,1.80642-.28217,1.99389-1.26582a1.59326,1.59326,0,0,1,.88846-1.11941q4.89038-.636,9.80652-1.06858c1.47547-.13221,2.967-0.1131,4.45108-0.10994a4.68123,4.68123,0,0,1,2.29648.24389,8.79536,8.79536,0,0,1,1.7517,2.21274l1.22076-.15509a1.63738,1.63738,0,0,0,.0792-0.37c-0.51915-3.92253-1.03233-7.846-1.59763-11.76189a0.95485,0.95485,0,0,0-.79574-0.41623c-1.58881.22563-3.15759,0.64588-4.75112,0.77106-1.94384.15271-3.90558,0.075-5.85949,0.10272-3.09956.04394-6.199,0.096-9.29867,0.12893a1.18371,1.18371,0,0,1-.44812-0.22758,1.78922,1.78922,0,0,1,1.176-.45439c3.51854-.04746,7.04271.0313,10.55428-0.14522,2.61838-.13161,5.22544-0.5507,7.8279-0.9113,1.3467-.1866,1.56112-0.54075,1.421-1.89233-0.376-3.62681-.77932-7.25088-1.13281-10.87983-0.0776-.79659-0.42034-0.86-1.097-0.71248a22.7236,22.7236,0,0,1-3.81582.662c-3.76791.1604-7.5409,0.20622-11.31232,0.2753-1.18374.02169-2.36873-.02492-3.55315-0.04026l-0.08185-.3994a6.32545,6.32545,0,0,1,1.31139-.37124c1.23852-.08085,2.48206-0.08437,3.72355-0.12034,3.01624-.08742,6.03553-0.12039,9.04746-0.28618,1.63627-.09006,3.26291-0.38854,4.88638-0.64127a0.89926,0.89926,0,0,0,.626-0.52875,5.78554,5.78554,0,0,0-2.56818-5.27223,1.11933,1.11933,0,0,0-.85824-0.01172,29.01092,29.01092,0,0,1-11.13046,2.07908C53.68169,32.69538,51.96819,32.78491,50.03979,32.84617ZM26.39824,66.1415a15.79028,15.79028,0,0,0-.08715-2.1605,1.10165,1.10165,0,0,1,1.104-1.43187c0.88525-.16842,1.76128-0.38814,2.64913-0.53976a40.77,40.77,0,0,1,12.76945.26132c2.02929,0.29272,2.29512.78525,2.111,2.817a31.06762,31.06762,0,0,0-.21014,6.13893,27.24342,27.24342,0,0,1-.97209,9.939c-0.36209,1.39341-.87587,2.87018-2.4442,3.39478a8.49516,8.49516,0,0,1-2.8867.46771c-2.272-.06867-4.53729-0.33355-6.80874-0.45424a4.66014,4.66014,0,0,1-4.17666-2.59112,9.3047,9.3047,0,0,1-.82061-2.80078,53.71825,53.71825,0,0,1-.64923-5.68572c-0.09645-2.06592.02265-4.1419,0.0478-6.21559-1.79235-.0582-2.064.00629-2.11248,1.80917-0.09395,3.49234.04244,6.99081,0.07914,10.48678a0.91183,0.91183,0,0,0,.94309.94711,11.74208,11.74208,0,0,1,2.00466.81762l-0.12939.39476-3.10758-.29621a31.43465,31.43465,0,0,0,1.57138,4.46042c1.086,2.03853,3.14711,2.60128,5.2824,2.81125,3.85827,0.37941,7.72093.71454,11.58224,1.06288,1.326,0.11962,2.65282.23244,3.98056,0.33091a0.89739,0.89739,0,0,0,1.16491-1.02919c0.05385-3.84683.17919-7.69287,0.30086-11.53849,0.05943-1.878.2239-3.75392,0.23883-5.63159,0.01458-1.83373-.10071-3.66851-0.16565-5.71231l-2.74956.08735-0.03717-.43765,3.11457-.47163c0.01032-4.29513.02054-8.53639,0.03079-12.80063-1.26677.12241-2.30174,0.30955-3.33548,0.303-1.79665-.0114-3.59415-0.23557-5.38845-0.20482-4.33.07419-8.65806,0.25776-12.98774,0.36236a0.9568,0.9568,0,0,0-1.10162,1.03555c-0.127,1.48276-.3418,2.95787-0.47754,4.44005-0.23442,2.55955-.43613,5.12209-0.65363,7.708Zm-4.17707,8.17526,0.103,0.362a1.0395,1.0395,0,0,1-.31706.43932,25.23439,25.23439,0,0,1-11.0308-.91533c-0.20393,1.98825-.51124,3.80637-0.541,5.629a21.78212,21.78212,0,0,0,.44611,4.78928c0.34624,1.65147.79633,1.733,2.41341,1.50894a8.3679,8.3679,0,0,1,5.4571.837c0.62369,0.35788,1.05836.30563,1.28064-.39638a38.03993,38.03993,0,0,0,1.78317-5.959c0.67934-4.79668,1.10591-9.6304,1.58007-14.45452,0.42888-4.36359.78968-8.73393,1.17057-13.10217,0.09044-1.03731.1411-2.07809,0.21862-3.2463-0.89559.02845-1.59128,0.05851-2.28726,0.07091a18.07783,18.07783,0,0,1-3.74474-.00376c-1.30346-.25693-1.75386.16242-2.04621,1.3291-0.76013,3.0333-1.60178,6.04625-2.41834,9.06531-0.39224,1.4502-.08286,1.89137,1.43727,1.9483,2.271,0.08507,4.54287.14879,6.814,0.23055a2.86425,2.86425,0,0,1,.54415.126l0.11613,0.3536a2.80016,2.80016,0,0,1-1.0196.39893c-2.65464-.14007-5.30538-0.35422-7.96019-0.48937a1.12831,1.12831,0,0,0-.9191.4884c-0.78955,3.21851-1.51212,6.45344-2.2979,9.88914a46.9998,46.9998,0,0,0,5.64234,1.22661A44.16181,44.16181,0,0,0,22.22117,74.31676ZM42.54475,26.408c-0.805-.80821-1.55361-1.5237-2.26171-2.27723-2.3789-2.53153-2.41226-6.17346-.52243-8.01984a13.84815,13.84815,0,0,1,9.66231-4.32246,62.37443,62.37443,0,0,1,7.4659.74327,12.00694,12.00694,0,0,1,8.66049,4.652c0.83478,1.11481,1.62709,2.36524.85863,3.78889C64.55631,24.403,59.79978,27.00946,55.91936,24.987c-1.79922-.93774-3.65884-1.492-5.58155-0.07735-0.16431,1.51518-.61,3.1553.59979,4.61222a0.79735,0.79735,0,0,1-.125.62951c-0.22493.38062-.50943,0.726-0.7695,1.0859a5.33432,5.33432,0,0,0,1.43554.55283c4.83714,0.35986,9.65673.258,14.18607-1.70344,3.55385-1.539,6.16182-4.03931,6.21087-8.22238,0.02268-1.9358.4283-4.12541-1.38879-5.61583a17.3716,17.3716,0,0,0-4.18747-2.97538,39.95441,39.95441,0,0,0-7.67226-2.15554,80.20881,80.20881,0,0,0-8.629-.90982,9.098,9.098,0,0,0-3.14248.35627,21.32129,21.32129,0,0,0-5.46453,1.99277,27.31712,27.31712,0,0,0-7.65157,7.57979c-1.25436,1.78861-1.4805,2.57735.29478,4.52253a21.25084,21.25084,0,0,0,9.9,6.10325,14.90481,14.90481,0,0,0,2.39031.29074c0.64445-2.06677,1.2433-3.98727,1.93038-6.19078l-5.49436.99483Zm5.25706,11.49363c-3.6273.11524-7.06357,0.2256-10.5,0.33094-0.23422.00718-.46948-0.03135-0.70449-0.035-2.99664-.04707-5.99354-0.082-8.98988-0.14337A0.99152,0.99152,0,0,0,26.46,39.16305c-0.28224,3.904-.57062,7.808-0.91389,11.707-0.09111,1.03492.18061,1.36737,1.2674,1.3373,4.43482-.12273,8.87238-0.14331,13.30869-0.21643,2.27037-.03743,4.54-0.1184,6.81041-0.15465a0.89813,0.89813,0,0,0,.989-1.19111c-0.094-1.2072-.12193-2.42189-0.12321-3.63346-0.00274-2.56984.03242-5.13968,0.04543-7.70956C47.84619,38.84089,47.817,38.37954,47.80181,37.90162ZM26.885,68.3702a45.72454,45.72454,0,0,0,.85713,11.5005c0.46446,2.62656,1.61206,3.56943,4.23271,3.79715,2.42083,0.21037,4.86187.17658,7.29125,0.3034,2.39462,0.125,3.45015-1.14309,3.89246-3.387,0.6347-3.2201,1.30547-6.43231.71185-9.76879-0.26823-1.50764-.27015-1.79158-1.72508-1.89117-2.26625-.15513-4.53915-0.21948-6.81006-0.29864C32.56645,68.5291,29.79679,68.45708,26.885,68.3702ZM53.4878,68.85084c0.5389,3.26119,1.058,6.31051,1.54294,9.36526a6.60951,6.60951,0,0,0,5.713,5.25912,65.26471,65.26471,0,0,0,6.79846-.24593,2.63648,2.63648,0,0,0,1.87249-.796c0.89741-1.52477,2.0251-3.1486,2.18758-4.81938a64.47588,64.47588,0,0,0-.19924-8.82722,2.03528,2.03528,0,0,0-.22851-0.7484A74.35987,74.35987,0,0,1,53.4878,68.85084ZM50.1041,79.24669c-0.05,3.26-.10862,6.35177-0.13968,9.4438-0.01366,1.35944.197,1.559,1.581,1.47726,1.72424-.10189,3.44516-0.35885,5.168-0.36363a48.32218,48.32218,0,0,0,9.2446-.47165c2.30851-.44871,4.62007-0.78638,6.44915-2.253a5.72866,5.72866,0,0,0,2.14431-3.307,16.04417,16.04417,0,0,0,.08687-2.86c-0.21791-3.12712-.38056-6.25878-0.64784-9.38155-0.1833-2.14172-.50527-4.27157-0.79238-6.62943l-1.70967.47683a39.25271,39.25271,0,0,1,.77031,4.11311c0.19881,2.52864.24687,5.06914,0.35666,7.588a5.20332,5.20332,0,0,1,.73965.10943c0.26674,0.096.52245,0.22268,0.78275,0.33662-0.25488.17048-.51711,0.33109-0.76283,0.51388a3.31982,3.31982,0,0,0-.92939.76079c-0.4835.80484-.85368,1.67688-1.29084,2.51067-0.62834,1.19845-1.29011,2.486-2.7741,2.67439-3.83256.48643-7.72754,1.39746-11.32315-.98967a5.99662,5.99662,0,0,1-2.79174-4.01163c-0.39011-2.23083-.62031-4.48917-0.97445-6.72695a11.54482,11.54482,0,0,0-.72-2.93047c-0.37627-.83514-0.33382-1.21842.61405-1.27427-0.67364-2.26639-.67364-2.26639-3.26984-1.66011l0.38279,12.049a4.23394,4.23394,0,0,1,3.69877.32146ZM41.01458,23.2198c-0.32221-1.72432.17916-2.95461,1.67032-3.43308a27.437,27.437,0,0,1,5.788-1.34264c3.11368-.28592,6.25741-0.29375,9.38884-0.30476a6.42773,6.42773,0,0,1,2.59543.64A2.52426,2.52426,0,0,1,61.7,22.55194c-0.22956.43921-.3987,0.91-0.72223,1.66a4.58851,4.58851,0,0,0,1.52215-.39289,20.02161,20.02161,0,0,0,2.37526-2.24807,2.88651,2.88651,0,0,0-.066-3.93581A11.45058,11.45058,0,0,0,57.382,13.49464a41.121,41.121,0,0,1-4.7651-.65783,11.21386,11.21386,0,0,0-7.21279.672,34.78331,34.78331,0,0,0-3.88048,2.20387A4.70949,4.70949,0,0,0,41.01458,23.2198Zm6.70228,7.66191-0.51236-.16957c0.10468,1.09206-.46523,1.26287-1.2001,1.12221-1.33694-.25591-2.67319-0.52142-3.9982-0.832-1.55951-.36559-2.696-1.61216-4.65363-1.348a37.10566,37.10566,0,0,0-10.58631,2.69247c-0.11391,1.20885-.22521,2.34526-0.32691,3.48254A1.15013,1.15013,0,0,0,27.879,37.26478c1.63123-.10216,3.2696-0.1615,4.90321-0.13457,1.64135,0.027,3.28175.27961,4.92054,0.26058,3.36877-.03913,6.7362-0.1936,10.21128-0.304ZM86.80825,72.16387c-3.5608,2.57554-7.21106,4.10429-11.40286,4.01975-0.0169,3.94036-.21948,7.83778,2.61778,10.91691,3.19368-2.37229,6.52419-4.1463,10.80271-3.00945C89.16115,79.98313,88.07191,76.19191,86.80825,72.16387ZM79.72108,48.4206c-0.99053.32032-1.82933,0.6462-2.69588,0.85892-1.28214.31474-2.57871,0.57957-3.87946,0.8063a1.00626,1.00626,0,0,0-.97606,1.2872c0.19077,1.47351.32953,2.954,0.53356,4.42548,0.32215,2.32391.75061,4.63566,0.98887,6.96738,0.0964,0.94331.40331,1.32846,1.28756,1.12325a27.57191,27.57191,0,0,0,7.3098-2.27822c0.97229-.53468,1.35215-1.02553.99873-2.10182C82.08522,55.84563,80.92321,52.16872,79.72108,48.4206ZM75.20165,75.0307c3.2127,0.86584,8.57419-1.11957,10.69977-3.51476a1.31493,1.31493,0,0,0,.23247-1.04056c-0.6272-2.41178-1.3017-4.81149-1.98326-7.20877-0.37476-1.31817-.74207-1.44555-1.98811-0.78369a11.31963,11.31963,0,0,1-2.1953,1.09846c-1.90783.51926-3.85326,0.90043-5.90161,1.36383Zm-3.042-40.92009c-0.42621,1.51343-1.06231,2.72807-1.04585,3.93377,0.033,2.41568.41867,4.82691,0.667,7.23914,0.13941,1.35388.29541,2.70605,0.45168,4.12959,2.38793-.561,4.89738-0.53788,7.07476-1.97044C77.35722,42.87551,75.98942,38.09562,72.15968,34.11061ZM43.66026,68.24367c0.17-1.14824.33472-2.14433,0.46145-3.14525,0.17829-1.4084-.08225-1.7791-1.46112-1.927-1.51717-.16278-3.06948-0.11189-4.5583-0.40162-3.15062-.61311-6.215.05352-9.31433,0.34793-1.372.13033-1.62809,1.209-1.52217,2.79479,0.088,1.31791.459,1.577,1.9448,1.568,0.3932-.00239.78749-0.01932,1.17945,0.00282C34.75934,67.73,39.12829,67.983,43.66026,68.24367Zm9.67731-4.44347a29.46111,29.46111,0,0,0,.458,3.20471,1.42268,1.42268,0,0,0,.94455.91385c2.066,0.11672,4.13915.13125,6.20983,0.1281,0.81918-.00126,1.63682-0.16194,2.45752-0.20421,1.63919-.08443,3.28317-0.09679,4.91851-0.22437,0.59821-.04667,1.63786-0.25484,1.68594-0.52828a10.14381,10.14381,0,0,0,.062-3.6662c-0.07188-.36185-1.31262-0.70254-2.01231-0.6913-2.73565.04389-5.47227,0.18663-8.20211,0.38223C57.75887,63.26524,55.66784,63.54993,53.33757,63.80019ZM49.7171,19.1961c-1.40332.1527-2.42888,0.18259-3.41356,0.39874a3.643,3.643,0,0,0-2.01217.89068,2.194,2.194,0,0,0,1.60114,3.36106A19.84912,19.84912,0,0,0,51.07372,23.5a6.63829,6.63829,0,0,1,4.43867.25283c2.19587,1.01716,2.86434.61486,3.31062-1.81a2.36634,2.36634,0,0,0-2.475-2.95631C54.00634,19.05651,51.665,19.13422,49.7171,19.1961ZM17.3314,48.69459a18.88645,18.88645,0,0,0,6.3646.30359,1.18743,1.18743,0,0,0,1.19911-1.37688,37.90357,37.90357,0,0,1,.38887-5.50483,2.87763,2.87763,0,0,0-.49261-2.6945c-0.6555-.74129-1.29764-1.49434-2.21425-2.55215C20.75578,40.97546,19.09708,44.71442,17.3314,48.69459ZM79.19506,87.8209a11.75922,11.75922,0,0,0,9.11272-1.88324C86.53315,83.88862,81.20477,85.02953,79.19506,87.8209ZM25.61158,33.14344c-0.77448.98162-1.37423,1.67838-1.89045,2.43234a1.0876,1.0876,0,0,0-.1418.94787c0.56264,0.77351,1.23213,1.46926,1.85879,2.1897C25.49521,36.87993,25.54814,35.18025,25.61158,33.14344ZM59.229,19.3026c1.17259,2.0467.17887,3.6215-.52268,5.23362,0.99135,0.1302,1.78255-.77164,2.33979-2.53034C61.43828,20.76827,61.09365,20.18448,59.229,19.3026ZM49.15982,89.46731L49.33349,89.502q0.0377-4.42877.0754-8.85755l-0.6511.00191c0.03875,1.21982.11445,2.44,0.10315,3.65935-0.00741.79809-.14079,1.595-0.21488,2.3628Zm0.22888-36.8794-0.52617.03545,0.38566,12.13917,0.1375,0.00773Q49.3872,58.67909,49.3887,52.58791ZM13.23736,87.12864c1.34909,1.14565,4.477,1.727,5.30246,1.08189C16.96213,86.86,15.06958,87.16889,13.23736,87.12864Zm29.68393-66.4453c-1.11544.72661-1.52366,1.51953-1.02118,2.5883a2.26693,2.26693,0,0,0,2.70219,1.28847C43.8852,23.38837,42.33424,22.60936,42.92129,20.68334Zm6.43076,51.05194-0.1485-.02874a5.01822,5.01822,0,0,0-.10464,1.84452,2.89681,2.89681,0,0,1-.25437,2.54844,1.68467,1.68467,0,0,0,.729,2.60894ZM48.89479,43.77494l0.28712-.00617-0.23928-7.53189-0.28725.00218ZM69.91012,31.253l1.00869,4.03359C72.14,33.05295,71.91471,32.15194,69.91012,31.253Zm-21.529,36.73868,0.12367,3.89261C49.34108,69.33193,49.34108,69.33193,48.38117,67.99171Z"/><path d="M54.02987,49.578c-0.05764-1.81428-.14419-3.52142-0.15588-5.22906-0.00935-1.36513.13632-2.7327,0.09746-4.09589-0.0483-1.69382,1.46765-.67652,2.04114-1.25937a2.938,2.938,0,0,1,.61123,1.11636c0.02094,2.45-.0555,4.90069-0.0707,7.35134-0.00449.72175,0.08622,1.44411,0.1333,2.16618-0.70637-.02221-1.41271-0.047-2.11921-0.065C54.37581,49.55772,54.18388,49.57312,54.02987,49.578Zm2.08379-1.05894c-0.07773-2.44678-.137-4.86692-0.249-7.28462a4.32438,4.32438,0,0,0-.41154-1.17217,1.35247,1.35247,0,0,0-.557.90056c-0.12479,2.187-.206,4.37655-0.333,6.56342C54.51435,48.36692,54.89506,48.65535,56.11367,48.51907Z"/><path d="M47.51732,78.539c-0.47422.89716-2.24132,1.415-2.77115,0.9894a0.557,0.557,0,0,1-.16917-0.49305,0.72156,0.72156,0,0,1,.46788-0.39992C45.80668,78.56977,46.57405,78.56893,47.51732,78.539Z"/><path d="M44.29189,50.01282a17.39821,17.39821,0,0,1-2.09353.03828,0.8428,0.8428,0,0,1-.58707-0.56674c0.06415-3.17133.18343-6.3415,0.27421-9.51238,0.01675-.58575.15554-0.8303,0.8419-0.73654,1.89845,0.25933,1.80162.21823,1.72932,2.12657-0.0988,2.60808-.01646,5.2228-0.03146,7.83456A3.78163,3.78163,0,0,1,44.29189,50.01282Zm-0.72984-9.4957-0.41831-.13181a1.99505,1.99505,0,0,0-.35.69121c-0.11033,2.37181-.20439,4.74486-0.2491,7.11857a2.10121,2.10121,0,0,0,.48569.83635A2.16815,2.16815,0,0,0,43.54751,48.21c0.073-1.67568.08756-3.35447,0.09351-5.03231C43.64418,42.29092,43.59023,41.404,43.56205,40.51713Z"/><path d="M27.8312,65.40739c0.4152-.35843.97709-1.094,1.21664-1.00078a2.811,2.811,0,0,1,1.46309,1.33111,1.75677,1.75677,0,0,1-.90787,1.3189C29.00548,67.32015,28.09236,66.3838,27.8312,65.40739Z"/><path d="M40.83914,64.73166c0.9644-.058,1.48661.22121,1.52553,1.07492a2.06847,2.06847,0,0,1-1.71529,1.92392,1.46375,1.46375,0,0,1-1.63364-1.66843C39.07045,64.80358,40.35659,65.18126,40.83914,64.73166Zm-0.49077,2.36452,0.467,0.04525,0.9293-1.29266-0.221-.35384a3.98364,3.98364,0,0,0-1.36682.44951A2.52907,2.52907,0,0,0,40.34837,67.09618Z"/><path d="M56.407,64.40948a7.30858,7.30858,0,0,1,1.52678,1.85616,1.40607,1.40607,0,0,1-1.411,1.65176c-0.78927-.00441-1.87232-0.85493-1.66356-1.49215A8.655,8.655,0,0,1,56.407,64.40948Zm0.11761,1.18126a3.058,3.058,0,0,0-.5816.95069,0.80161,0.80161,0,0,0,.56624.48571,1.01772,1.01772,0,0,0,.60768-0.62356A2.16766,2.16766,0,0,0,56.52462,65.59074Z"/><path d="M66.2341,65.19033a3.12421,3.12421,0,0,1,1.46181-.74843,4.61127,4.61127,0,0,1,1.49771,1.19147,3.15669,3.15669,0,0,1-1.32332.99648,4.42709,4.42709,0,0,1-1.64967-.92819Z"/></g><text x="0" y="115" fill="#000000" font-size="5px" font-weight="bold" font-family="'Helvetica Neue', Helvetica, Arial-Unicode, Arial, Sans-serif">Created by Tatyana</text><text x="0" y="120" fill="#000000" font-size="5px" font-weight="bold" font-family="'Helvetica Neue', Helvetica, Arial-Unicode, Arial, Sans-serif">from the Noun Project</text></svg>