<?xml version="1.0" encoding="UTF-8"?>
<svg width="700pt" height="700pt" version="1.1" viewBox="0 0 700 700" xmlns="http://www.w3.org/2000/svg" xmlns:xlink="http://www.w3.org/1999/xlink">
 <defs>
  <symbol id="s" overflow="visible">
   <path d="m18.766-1.125c-0.96875 0.5-1.9805 0.875-3.0312 1.125-1.043 0.25781-2.1367 0.39062-3.2812 0.39062-3.3984 0-6.0898-0.94531-8.0781-2.8438-1.9922-1.9062-2.9844-4.4844-2.9844-7.7344 0-3.2578 0.99219-5.8359 2.9844-7.7344 1.9883-1.9062 4.6797-2.8594 8.0781-2.8594 1.1445 0 2.2383 0.13281 3.2812 0.39062 1.0508 0.25 2.0625 0.625 3.0312 1.125v4.2188c-0.98047-0.65625-1.9453-1.1406-2.8906-1.4531-0.94922-0.3125-1.9492-0.46875-3-0.46875-1.875 0-3.3516 0.60547-4.4219 1.8125-1.0742 1.1992-1.6094 2.8555-1.6094 4.9688 0 2.1055 0.53516 3.7617 1.6094 4.9688 1.0703 1.1992 2.5469 1.7969 4.4219 1.7969 1.0508 0 2.0508-0.14844 3-0.45312 0.94531-0.3125 1.9102-0.80078 2.8906-1.4688z"/>
  </symbol>
  <symbol id="d" overflow="visible">
   <path d="m13.734-11.141c-0.4375-0.19531-0.87109-0.34375-1.2969-0.4375-0.41797-0.10156-0.83984-0.15625-1.2656-0.15625-1.2617 0-2.2305 0.40625-2.9062 1.2188-0.67969 0.80469-1.0156 1.9531-1.0156 3.4531v7.0625h-4.8906v-15.312h4.8906v2.5156c0.625-1 1.3438-1.7266 2.1562-2.1875 0.82031-0.46875 1.8008-0.70312 2.9375-0.70312 0.16406 0 0.34375 0.011719 0.53125 0.03125 0.19531 0.011719 0.47656 0.039062 0.84375 0.078125z"/>
  </symbol>
  <symbol id="a" overflow="visible">
   <path d="m17.641-7.7031v1.4062h-11.453c0.125 1.1484 0.53906 2.0078 1.25 2.5781 0.70703 0.57422 1.7031 0.85938 2.9844 0.85938 1.0312 0 2.082-0.14844 3.1562-0.45312 1.082-0.3125 2.1914-0.77344 3.3281-1.3906v3.7656c-1.1562 0.4375-2.3125 0.76562-3.4688 0.98438-1.1562 0.22656-2.3125 0.34375-3.4688 0.34375-2.7734 0-4.9297-0.70312-6.4688-2.1094-1.5312-1.4062-2.2969-3.3789-2.2969-5.9219 0-2.5 0.75391-4.4609 2.2656-5.8906 1.5078-1.4375 3.582-2.1562 6.2188-2.1562 2.4062 0 4.332 0.73047 5.7812 2.1875 1.4453 1.4492 2.1719 3.3828 2.1719 5.7969zm-5.0312-1.625c0-0.92578-0.27344-1.6719-0.8125-2.2344-0.54297-0.57031-1.25-0.85938-2.125-0.85938-0.94922 0-1.7188 0.26562-2.3125 0.79688s-0.96484 1.2969-1.1094 2.2969z"/>
  </symbol>
  <symbol id="e" overflow="visible">
   <path d="m9.2188-6.8906c-1.0234 0-1.793 0.17188-2.3125 0.51562-0.51172 0.34375-0.76562 0.85547-0.76562 1.5312 0 0.625 0.20703 1.1172 0.625 1.4688 0.41406 0.34375 0.98828 0.51562 1.7188 0.51562 0.92578 0 1.7031-0.32812 2.3281-0.98438 0.63281-0.66406 0.95312-1.4922 0.95312-2.4844v-0.5625zm7.4688-1.8438v8.7344h-4.9219v-2.2656c-0.65625 0.92969-1.3984 1.6055-2.2188 2.0312-0.82422 0.41406-1.8242 0.625-3 0.625-1.5859 0-2.8711-0.45703-3.8594-1.375-0.99219-0.92578-1.4844-2.1289-1.4844-3.6094 0-1.7891 0.61328-3.1016 1.8438-3.9375 1.2383-0.84375 3.1797-1.2656 5.8281-1.2656h2.8906v-0.39062c0-0.76953-0.30859-1.332-0.92188-1.6875-0.61719-0.36328-1.5703-0.54688-2.8594-0.54688-1.0547 0-2.0312 0.10547-2.9375 0.3125-0.89844 0.21094-1.7305 0.52344-2.5 0.9375v-3.7344c1.0391-0.25 2.0859-0.44141 3.1406-0.57812 1.0625-0.13281 2.125-0.20312 3.1875-0.20312 2.7578 0 4.75 0.54688 5.9688 1.6406 1.2266 1.0859 1.8438 2.8555 1.8438 5.3125z"/>
  </symbol>
  <symbol id="c" overflow="visible">
   <path d="m7.7031-19.656v4.3438h5.0469v3.5h-5.0469v6.5c0 0.71094 0.14062 1.1875 0.42188 1.4375s0.83594 0.375 1.6719 0.375h2.5156v3.5h-4.1875c-1.9375 0-3.3125-0.39844-4.125-1.2031-0.80469-0.8125-1.2031-2.1797-1.2031-4.1094v-6.5h-2.4219v-3.5h2.4219v-4.3438z"/>
  </symbol>
  <symbol id="k" overflow="visible">
   <path d="m12.766-13.078v-8.2031h4.9219v21.281h-4.9219v-2.2188c-0.66797 0.90625-1.4062 1.5703-2.2188 1.9844s-1.7578 0.625-2.8281 0.625c-1.8867 0-3.4336-0.75-4.6406-2.25-1.2109-1.5-1.8125-3.4258-1.8125-5.7812 0-2.3633 0.60156-4.2969 1.8125-5.7969 1.207-1.5 2.7539-2.25 4.6406-2.25 1.0625 0 2 0.21484 2.8125 0.64062 0.82031 0.42969 1.5664 1.0859 2.2344 1.9688zm-3.2188 9.9219c1.0391 0 1.8359-0.37891 2.3906-1.1406 0.55078-0.76953 0.82812-1.8828 0.82812-3.3438 0-1.457-0.27734-2.5664-0.82812-3.3281-0.55469-0.76953-1.3516-1.1562-2.3906-1.1562-1.043 0-1.8398 0.38672-2.3906 1.1562-0.55469 0.76172-0.82812 1.8711-0.82812 3.3281 0 1.4609 0.27344 2.5742 0.82812 3.3438 0.55078 0.76172 1.3477 1.1406 2.3906 1.1406z"/>
  </symbol>
  <symbol id="j" overflow="visible">
   <path d="m10.5-3.1562c1.0508 0 1.8516-0.37891 2.4062-1.1406 0.55078-0.76953 0.82812-1.8828 0.82812-3.3438 0-1.457-0.27734-2.5664-0.82812-3.3281-0.55469-0.76953-1.3555-1.1562-2.4062-1.1562-1.0547 0-1.8594 0.38672-2.4219 1.1562-0.55469 0.77344-0.82812 1.8828-0.82812 3.3281 0 1.4492 0.27344 2.5586 0.82812 3.3281 0.5625 0.77344 1.3672 1.1562 2.4219 1.1562zm-3.25-9.9219c0.67578-0.88281 1.4219-1.5391 2.2344-1.9688 0.82031-0.42578 1.7656-0.64062 2.8281-0.64062 1.8945 0 3.4453 0.75 4.6562 2.25 1.207 1.5 1.8125 3.4336 1.8125 5.7969 0 2.3555-0.60547 4.2812-1.8125 5.7812-1.2109 1.5-2.7617 2.25-4.6562 2.25-1.0625 0-2.0078-0.21094-2.8281-0.625-0.8125-0.42578-1.5586-1.0859-2.2344-1.9844v2.2188h-4.8906v-21.281h4.8906z"/>
  </symbol>
  <symbol id="i" overflow="visible">
   <path d="m0.34375-15.312h4.8906l4.125 10.391 3.5-10.391h4.8906l-6.4375 16.766c-0.64844 1.6953-1.4023 2.8828-2.2656 3.5625-0.86719 0.6875-2 1.0312-3.4062 1.0312h-2.8438v-3.2188h1.5312c0.83203 0 1.4375-0.13672 1.8125-0.40625 0.38281-0.26172 0.67969-0.73047 0.89062-1.4062l0.14062-0.42188z"/>
  </symbol>
  <symbol id="h" overflow="visible">
   <path d="m10.047-11.359c1.1016 0 1.8945-0.20312 2.375-0.60938 0.47656-0.41406 0.71875-1.0938 0.71875-2.0312 0-0.92578-0.24219-1.5859-0.71875-1.9844-0.48047-0.40625-1.2734-0.60938-2.375-0.60938h-2.2188v5.2344zm-2.2188 3.6406v7.7188h-5.25v-20.406h8.0312c2.6875 0 4.6562 0.45312 5.9062 1.3594 1.2578 0.89844 1.8906 2.3203 1.8906 4.2656 0 1.3555-0.32812 2.4648-0.98438 3.3281-0.64844 0.86719-1.625 1.5-2.9375 1.9062 0.71875 0.16797 1.3594 0.54297 1.9219 1.125 0.57031 0.57422 1.1484 1.4492 1.7344 2.625l2.8594 5.7969h-5.6094l-2.4844-5.0781c-0.5-1.0195-1.0117-1.7109-1.5312-2.0781-0.51172-0.375-1.1953-0.5625-2.0469-0.5625z"/>
  </symbol>
  <symbol id="b" overflow="visible">
   <path d="m9.6406-12.188c-1.0859 0-1.9141 0.39062-2.4844 1.1719-0.57422 0.78125-0.85938 1.9062-0.85938 3.375s0.28516 2.5938 0.85938 3.375c0.57031 0.77344 1.3984 1.1562 2.4844 1.1562 1.0625 0 1.875-0.38281 2.4375-1.1562 0.57031-0.78125 0.85938-1.9062 0.85938-3.375s-0.28906-2.5938-0.85938-3.375c-0.5625-0.78125-1.375-1.1719-2.4375-1.1719zm0-3.5c2.6328 0 4.6914 0.71484 6.1719 2.1406 1.4766 1.418 2.2188 3.3867 2.2188 5.9062 0 2.5117-0.74219 4.4805-2.2188 5.9062-1.4805 1.418-3.5391 2.125-6.1719 2.125-2.6484 0-4.7148-0.70703-6.2031-2.125-1.4922-1.4258-2.2344-3.3945-2.2344-5.9062 0-2.5195 0.74219-4.4883 2.2344-5.9062 1.4883-1.4258 3.5547-2.1406 6.2031-2.1406z"/>
  </symbol>
  <symbol id="g" overflow="visible">
   <path d="m16.547-12.766c0.61328-0.94531 1.3477-1.6719 2.2031-2.1719 0.85156-0.5 1.7891-0.75 2.8125-0.75 1.7578 0 3.0977 0.54688 4.0156 1.6406 0.92578 1.0859 1.3906 2.6562 1.3906 4.7188v9.3281h-4.9219v-7.9844-0.35938c0.007813-0.13281 0.015625-0.32031 0.015625-0.5625 0-1.082-0.16406-1.8633-0.48438-2.3438-0.3125-0.48828-0.82422-0.73438-1.5312-0.73438-0.92969 0-1.6484 0.38672-2.1562 1.1562-0.51172 0.76172-0.77344 1.8672-0.78125 3.3125v7.5156h-4.9219v-7.9844c0-1.6953-0.14844-2.7852-0.4375-3.2656-0.29297-0.48828-0.8125-0.73438-1.5625-0.73438-0.9375 0-1.6641 0.38672-2.1719 1.1562-0.51172 0.76172-0.76562 1.8594-0.76562 3.2969v7.5312h-4.9219v-15.312h4.9219v2.2344c0.60156-0.86328 1.2891-1.5156 2.0625-1.9531 0.78125-0.4375 1.6406-0.65625 2.5781-0.65625 1.0625 0 2 0.25781 2.8125 0.76562 0.8125 0.51172 1.4258 1.2305 1.8438 2.1562z"/>
  </symbol>
  <symbol id="f" overflow="visible">
   <path d="m17.75-9.3281v9.3281h-4.9219v-7.1406c0-1.3203-0.03125-2.2344-0.09375-2.7344s-0.16797-0.86719-0.3125-1.1094c-0.1875-0.3125-0.44922-0.55469-0.78125-0.73438-0.32422-0.17578-0.69531-0.26562-1.1094-0.26562-1.0234 0-1.8242 0.39844-2.4062 1.1875-0.58594 0.78125-0.875 1.8711-0.875 3.2656v7.5312h-4.8906v-15.312h4.8906v2.2344c0.73828-0.88281 1.5195-1.5391 2.3438-1.9688 0.83203-0.42578 1.75-0.64062 2.75-0.64062 1.7695 0 3.1133 0.54688 4.0312 1.6406 0.91406 1.0859 1.375 2.6562 1.375 4.7188z"/>
  </symbol>
  <symbol id="r" overflow="visible">
   <path d="m12.422-21.281v3.2188h-2.7031c-0.6875 0-1.1719 0.125-1.4531 0.375-0.27344 0.25-0.40625 0.6875-0.40625 1.3125v1.0625h4.1875v3.5h-4.1875v11.812h-4.8906v-11.812h-2.4375v-3.5h2.4375v-1.0625c0-1.6641 0.46094-2.8984 1.3906-3.7031 0.92578-0.80078 2.3672-1.2031 4.3281-1.2031z"/>
  </symbol>
  <symbol id="q" overflow="visible">
   <path d="m17.75-9.3281v9.3281h-4.9219v-7.1094c0-1.3438-0.03125-2.2656-0.09375-2.7656s-0.16797-0.86719-0.3125-1.1094c-0.1875-0.3125-0.44922-0.55469-0.78125-0.73438-0.32422-0.17578-0.69531-0.26562-1.1094-0.26562-1.0234 0-1.8242 0.39844-2.4062 1.1875-0.58594 0.78125-0.875 1.8711-0.875 3.2656v7.5312h-4.8906v-21.281h4.8906v8.2031c0.73828-0.88281 1.5195-1.5391 2.3438-1.9688 0.83203-0.42578 1.75-0.64062 2.75-0.64062 1.7695 0 3.1133 0.54688 4.0312 1.6406 0.91406 1.0859 1.375 2.6562 1.375 4.7188z"/>
  </symbol>
  <symbol id="p" overflow="visible">
   <path d="m2.5781-20.406h5.875l7.4219 14v-14h4.9844v20.406h-5.875l-7.4219-14v14h-4.9844z"/>
  </symbol>
  <symbol id="o" overflow="visible">
   <path d="m2.1875-5.9688v-9.3438h4.9219v1.5312c0 0.83594-0.007813 1.875-0.015625 3.125-0.011719 1.25-0.015625 2.0859-0.015625 2.5 0 1.2422 0.03125 2.1328 0.09375 2.6719 0.070313 0.54297 0.17969 0.93359 0.32812 1.1719 0.20703 0.32422 0.47266 0.57422 0.79688 0.75 0.32031 0.16797 0.69141 0.25 1.1094 0.25 1.0195 0 1.8203-0.39062 2.4062-1.1719 0.58203-0.78125 0.875-1.8672 0.875-3.2656v-7.5625h4.8906v15.312h-4.8906v-2.2188c-0.74219 0.89844-1.5234 1.5586-2.3438 1.9844-0.82422 0.41406-1.7344 0.625-2.7344 0.625-1.7617 0-3.1055-0.53906-4.0312-1.625-0.92969-1.082-1.3906-2.6602-1.3906-4.7344z"/>
  </symbol>
  <symbol id="n" overflow="visible">
   <path d="m2.5781-20.406h8.7344c2.5938 0 4.582 0.57812 5.9688 1.7344 1.3945 1.1484 2.0938 2.7891 2.0938 4.9219 0 2.1367-0.69922 3.7812-2.0938 4.9375-1.3867 1.1562-3.375 1.7344-5.9688 1.7344h-3.4844v7.0781h-5.25zm5.25 3.8125v5.7031h2.9219c1.0195 0 1.8047-0.25 2.3594-0.75 0.5625-0.5 0.84375-1.2031 0.84375-2.1094 0-0.91406-0.28125-1.6172-0.84375-2.1094-0.55469-0.48828-1.3398-0.73438-2.3594-0.73438z"/>
  </symbol>
  <symbol id="m" overflow="visible">
   <path d="m2.3594-15.312h4.8906v15.031c0 2.0508-0.49609 3.6172-1.4844 4.7031-0.98047 1.082-2.4062 1.625-4.2812 1.625h-2.4219v-3.2188h0.85938c0.92578 0 1.5625-0.21094 1.9062-0.625 0.35156-0.41797 0.53125-1.2461 0.53125-2.4844zm0-5.9688h4.8906v4h-4.8906z"/>
  </symbol>
  <symbol id="l" overflow="visible">
   <path d="m14.719-14.828v3.9844c-0.65625-0.45703-1.3242-0.79688-2-1.0156-0.66797-0.21875-1.3594-0.32812-2.0781-0.32812-1.3672 0-2.4336 0.40234-3.2031 1.2031-0.76172 0.79297-1.1406 1.9062-1.1406 3.3438 0 1.4297 0.37891 2.543 1.1406 3.3438 0.76953 0.79297 1.8359 1.1875 3.2031 1.1875 0.75781 0 1.4844-0.10938 2.1719-0.32812 0.6875-0.22656 1.3203-0.56641 1.9062-1.0156v4c-0.76172 0.28125-1.5391 0.48828-2.3281 0.625-0.78125 0.14453-1.5742 0.21875-2.375 0.21875-2.7617 0-4.9219-0.70703-6.4844-2.125-1.5547-1.4141-2.3281-3.3828-2.3281-5.9062 0-2.5312 0.77344-4.5039 2.3281-5.9219 1.5625-1.4141 3.7227-2.125 6.4844-2.125 0.80078 0 1.5938 0.074219 2.375 0.21875 0.78125 0.13672 1.5547 0.35156 2.3281 0.64062z"/>
  </symbol>
 </defs>
 <g>
  <path d="m482.37 212.55c-1.0234 14.699-10.461 139.41-11.234 149.37-0.54687 7.0586-0.26953 14.223-0.67969 21.305-0.53125 9.1602-1.8555 18.258-1.9688 27.438-0.15234 12.492 0.19922 25.043 0.96484 37.562 0.4375 7.1445-1.707 11.18-8.8555 11.902-15.004 1.5195-30.07 2.6602-45.09 4.0742-15.504 1.4609-30.98 3.0938-46.477 4.6016-14.375 1.3945-28.766 2.6641-43.133 4.1055h-0.003906c-6.1211 1.1328-12.312 1.8594-18.531 2.1641-15.438 0.078125-30.625-3.8789-44.062-11.48-5.7266-2.793-11.848-4.6992-18.148-5.6406-2.0664-0.27344-3.9375-1.3555-5.1992-3.0117s-1.8125-3.7461-1.5273-5.8086c-0.03125-10.102-0.10547-20.211-0.31641-30.32-0.26172-12.543-0.6875-25.094-1.0312-37.641-0.60156-21.832-0.79297-43.664-1.9531-65.496-0.58594-11.016-3.1836-22.016-4.3633-33.047-0.78906-7.3594-0.27734-14.789-1.0703-22.145-1.6914-15.738-3.8516-31.449-6.0234-48.82-7.9375 5.3047-14.578 9.6758-21.137 14.164-2.3906 1.6367-4.4922 3.6797-6.8867 5.3086l-0.007813-0.003906c-9.9609 7.7539-18.332 17.363-24.648 28.293-2.2734 3.3672-3.2227 3.2969-6.8281 1.0117-12.051-7.6445-17.512-20.297-25.188-31.246-6.6758-9.5234-12.844-19.395-19.742-28.75v-0.003906c-2.6016-2.6328-5.5859-4.8555-8.8477-6.5977-4.6016-3.2617-7.8867-3.9766-3.418-10.082 11.367-15.527 21.883-31.719 36.496-44.574 8.7812-7.7266 16.418-16.836 25.723-23.84 8.8125-6.1406 18.164-11.461 27.941-15.906 5.6055-2.6016 11.477-4.5859 17.508-5.918 8.1836-2.0859 16.477-3.7227 24.84-4.9023 12.016-1.5938 24.145-2.5742 36.25-3.6602 5.4453-0.61328 10.625 2.5156 12.621 7.6211 1.918 5.207 4.4141 10.184 7.4414 14.836 3.7617 4.5312 8.2227 8.4336 13.219 11.551 12.422 8.3203 28.012 10.375 42.168 5.5664 16.457-5.3672 31.414-14.164 39.887-30.211 4.6133-8.7383 11.637-10.016 20.758-8.5781 12.457 1.9609 25.02 2.9492 37.48 4.8672 7.5195 1.1562 14.945 3.2344 22.395 5.0039 5.1914 1.2344 10.406 2.4219 15.504 4.0352h0.003906c9.9453 3.7422 18.742 10.016 25.52 18.195 5.1914 5.5469 9.4688 11.957 14.781 17.371 5.0352 5.1289 10.887 9.4648 16.383 14.145 6.4531 5.4922 12.91 10.98 19.371 16.465 5.4219 4.5742 10.973 9 16.285 13.699 2.2422 1.9844 3.9453 4.5742 6.0273 6.7656v-0.003907c1.8594 1.5781 3.6211 3.2617 5.2773 5.0508 1.8164 2.457 4.4805 5.4609 4.3125 7.9336 0.10156 5.0977-1.9648 10.004-5.6836 13.496-11.578 9.6797-19.922 22.664-23.922 37.215-1.0781 3.7383-2.7031 7.2891-3.9336 10.977-0.5 1.7773-1.8711 3.1797-3.6367 3.7148-1.7656 0.53906-3.6836 0.13672-5.0898-1.0625-9.4258-6.6797-18.75-13.512-28.266-20.055-8.9297-6.1367-18.234-11.723-27.035-18.039-5.5195-3.9609-10.414-8.8242-15.219-12.965zm-279.56-109.39c8.6523 12.789 14.277 27.379 16.441 42.664 1 8.918 1.9961 17.832 3.0898 26.742 1.6836 13.699 6.8203 26.941 6.9375 40.914v0.003907c0.41016 8.2266 1.3008 16.418 2.668 24.539 1.0664 8.3672 2.6055 16.707 3.4453 25.082 2.0469 20.477 4.1875 40.957 5.5664 61.449 1.1445 17.027 1.3594 34.074 1.8047 51.109 0.62109 23.848 1.1328 47.691 1.5352 71.531 0.070313 4.3008 2.6758 5.1055 5.8984 6.2305 6.7617 2.3633 13.402 5.1172 20.109 7.6602h-0.003907c6.1992 2.918 12.652 5.2578 19.277 6.9883 19.152 3.3203 37.688-1.1875 56.422-2.9297 9.6445-0.89844 19.152-2.7461 28.805-3.5859 14.242-1.2383 28.598-1.6445 42.82-2.9883 13.727-1.2969 27.383-3.1367 40.961-5.2695v-0.003906c2.3516-0.99219 4.0195-3.1211 4.4258-5.6406 0.35938-4.1875-1.0352-8.582-1.0352-12.859 0-17.211 5.5859-148.17 6.1602-156.54 0.94531-13.746 3.8789-59.949 4.4141-69.305v0.003906c-0.13281-6.9883 0.27734-13.973 1.2305-20.895 5.3945-24.492 11.469-48.801 17.316-73.168 1.4766-6.1602 0.82812-8.125-4.7148-9.4648-17.031-4.1094-34.078-8.207-51.215-11.645-7.5898-1.5234-15.445-1.0977-23.125-2.2031-9.418-1.3555-12.391-0.1875-16.68 8.1602v-0.003906c-0.57422 1.3203-1.2969 2.5664-2.1562 3.7188-9.6953 11.953-22.535 20.961-37.07 26.012-11.215 4.0117-23.395 4.4805-34.883 1.3359-9.6797-2.3438-18.527-7.3164-25.559-14.371-5.7344-7.4922-10.777-15.492-15.066-23.895-4.4258-0.86328-8.9258-1.2773-13.434-1.2344-12.098 1.0312-24.199 2.3672-36.082 4.5078-9.4805 1.7109-18.641 4.7852-28.305 7.3477zm-89.809 83.312c4.1055 3.0039 7.875 6.4414 11.246 10.25 9.9961 14.441 19.254 29.375 29.215 43.84 3.7539 4.6523 7.8438 9.0234 12.234 13.078 14.848-20.129 34.074-36.617 56.227-48.227-0.90234-5.4727-1.6953-10.023-2.3984-14.59-1.8906-12.289-4.3203-24.555-5.4492-36.875h0.003906c-1.3711-13.312-5.293-26.234-11.555-38.062-2.2227-3.3438-4.793-6.4414-7.668-9.2461-33.137 19.863-61.168 47.199-81.855 79.832zm385.26-74.781c-0.875 2.7617-1.3203 3.9414-1.6289 5.1641-2.6875 10.73-5.4102 21.449-8.0078 32.203-3.6367 15.051-7.1367 30.137-10.785 45.184h0.003906c-1.6797 4.1523 0.15234 8.8906 4.1836 10.836 1.9727 1.2344 3.8398 2.6172 5.5977 4.1406 9.7266 7.5508 19.324 15.285 29.203 22.621 8.2031 6.0898 16.703 11.762 25.141 17.52h-0.003906c3.5586 2.5117 7.2734 4.7891 11.129 6.8125 1.5352 0.38281 3.1562-0.089844 4.2422-1.2383 2.1992-4.8359 4.1211-9.7891 5.7578-14.84 4.1953-12.039 11.406-22.801 20.945-31.258 2.1562-2.0156 4.9883-6.0273 4.2148-7.9141v0.003906c-2.1602-5.2031-5.2891-9.9492-9.2227-13.98-5.9336-6.0117-12.777-11.121-19.246-16.602-5.5195-5.2227-11.371-10.086-17.516-14.555-9.4727-6.25-17.75-14.145-24.441-23.312-6.1367-7.2812-12.668-14.219-19.566-20.785z"/>
  <use x="70" y="644" xlink:href="#s"/>
  <use x="90.550781" y="644" xlink:href="#d"/>
  <use x="104.359375" y="644" xlink:href="#a"/>
  <use x="123.347656" y="644" xlink:href="#e"/>
  <use x="142.242188" y="644" xlink:href="#c"/>
  <use x="155.628906" y="644" xlink:href="#a"/>
  <use x="174.617188" y="644" xlink:href="#k"/>
  <use x="204.410156" y="644" xlink:href="#j"/>
  <use x="224.453125" y="644" xlink:href="#i"/>
  <use x="252.453125" y="644" xlink:href="#h"/>
  <use x="274.011719" y="644" xlink:href="#b"/>
  <use x="293.25" y="644" xlink:href="#g"/>
  <use x="322.421875" y="644" xlink:href="#e"/>
  <use x="341.320312" y="644" xlink:href="#f"/>
  <use x="70" y="672" xlink:href="#r"/>
  <use x="82.183594" y="672" xlink:href="#d"/>
  <use x="95.992188" y="672" xlink:href="#b"/>
  <use x="115.226562" y="672" xlink:href="#g"/>
  <use x="154.152344" y="672" xlink:href="#c"/>
  <use x="167.535156" y="672" xlink:href="#q"/>
  <use x="187.46875" y="672" xlink:href="#a"/>
  <use x="216.207031" y="672" xlink:href="#p"/>
  <use x="239.640625" y="672" xlink:href="#b"/>
  <use x="258.878906" y="672" xlink:href="#o"/>
  <use x="278.8125" y="672" xlink:href="#f"/>
  <use x="308.492188" y="672" xlink:href="#n"/>
  <use x="329.015625" y="672" xlink:href="#d"/>
  <use x="342.820312" y="672" xlink:href="#b"/>
  <use x="362.058594" y="672" xlink:href="#m"/>
  <use x="371.65625" y="672" xlink:href="#a"/>
  <use x="390.648438" y="672" xlink:href="#l"/>
  <use x="407.242188" y="672" xlink:href="#c"/>
 </g>
</svg>
